<mxfile host="app.diagrams.net" modified="2023-07-17T14:44:16.622Z" agent="Mozilla/5.0 (Windows NT 10.0; Win64; x64) AppleWebKit/537.36 (KHTML, like Gecko) Chrome/114.0.0.0 Safari/537.36" etag="s4NmyzV8MWsQzUafFyR5" version="21.4.0" type="github">
  <diagram name="Page-1" id="AY5aCEsH_-TEs7CG9HPi">
    <mxGraphModel dx="819" dy="450" grid="1" gridSize="10" guides="1" tooltips="1" connect="1" arrows="1" fold="1" page="1" pageScale="1" pageWidth="850" pageHeight="1100" math="0" shadow="0">
      <root>
        <mxCell id="0" />
        <mxCell id="1" parent="0" />
        <mxCell id="gRu7T_2IsZ-dY_oKOvaS-2" value="các lĩnh vực (domain) hệ thống sẽ phát triển" style="text;html=1;align=center;verticalAlign=middle;resizable=0;points=[];autosize=1;strokeColor=none;fillColor=none;" vertex="1" parent="1">
          <mxGeometry x="300" y="18" width="260" height="30" as="geometry" />
        </mxCell>
        <mxCell id="gRu7T_2IsZ-dY_oKOvaS-3" value="&lt;div&gt;*&lt;br&gt;login&lt;/div&gt;&lt;div&gt;logout&lt;/div&gt;&lt;div&gt;signup&lt;/div&gt;" style="whiteSpace=wrap;html=1;aspect=fixed;" vertex="1" parent="1">
          <mxGeometry x="230" y="80" width="80" height="80" as="geometry" />
        </mxCell>
        <mxCell id="gRu7T_2IsZ-dY_oKOvaS-4" value="*&lt;br&gt;product management&lt;br&gt;CRUD&lt;br&gt;SEARCH" style="whiteSpace=wrap;html=1;aspect=fixed;" vertex="1" parent="1">
          <mxGeometry x="350" y="80" width="120" height="120" as="geometry" />
        </mxCell>
      </root>
    </mxGraphModel>
  </diagram>
</mxfile>
